<svg width="540" height="403" viewBox="0 0 540 403" fill="none" xmlns="http://www.w3.org/2000/svg">
<path d="M540 353.592H0V353.862H540V353.592Z" fill="#EBEBEB"/>
<path d="M92.4259 363.874H56.6562V364.144H92.4259V363.874Z" fill="#EBEBEB"/>
<path d="M242.997 364.015H184.828V364.285H242.997V364.015Z" fill="#EBEBEB"/>
<path d="M134.96 369.446H114.234V369.716H134.96V369.446Z" fill="#EBEBEB"/>
<path d="M481.682 369.317H460.914V369.587H481.682V369.317Z" fill="#EBEBEB"/>
<path d="M451.291 369.317H418.578V369.587H451.291V369.317Z" fill="#EBEBEB"/>
<path d="M400.559 367.535H354.594V367.805H400.559V367.535Z" fill="#EBEBEB"/>
<path d="M255.959 305.424H47.4216C45.788 305.421 44.2222 304.77 43.068 303.614C41.9139 302.458 41.2656 300.891 41.2656 299.257V6.1128C41.2798 4.48851 41.9344 2.93542 43.087 1.79088C44.2396 0.646335 45.7973 0.0027825 47.4216 0H255.959C257.594 0 259.163 0.649715 260.319 1.80621C261.476 2.96271 262.126 4.53126 262.126 6.1668V299.257C262.126 300.893 261.476 302.461 260.319 303.618C259.163 304.774 257.594 305.424 255.959 305.424ZM47.4216 0.216001C45.8596 0.218862 44.3625 0.84139 43.2589 1.94694C42.1554 3.0525 41.5356 4.55074 41.5356 6.1128V299.257C41.5356 300.819 42.1554 302.317 43.2589 303.423C44.3625 304.529 45.8596 305.151 47.4216 305.154H255.959C257.522 305.151 259.02 304.529 260.125 303.424C261.231 302.318 261.853 300.82 261.856 299.257V6.1128C261.853 4.54975 261.231 3.05153 260.125 1.94629C259.02 0.841039 257.522 0.218856 255.959 0.216001H47.4216Z" fill="#EBEBEB"/>
<path d="M489.574 305.424H281.026C279.392 305.421 277.825 304.771 276.669 303.615C275.513 302.459 274.862 300.892 274.859 299.257V6.1128C274.876 4.48752 275.533 2.93444 276.688 1.7902C277.842 0.645957 279.401 0.00275215 281.026 0H489.574C491.197 0.00562086 492.752 0.650429 493.902 1.79467C495.052 2.9389 495.705 4.49037 495.719 6.1128V299.257C495.719 300.889 495.073 302.454 493.921 303.61C492.769 304.766 491.206 305.418 489.574 305.424ZM281.026 0.216001C279.463 0.218856 277.965 0.841039 276.86 1.94629C275.754 3.05153 275.132 4.54975 275.129 6.1128V299.257C275.132 300.82 275.754 302.318 276.86 303.424C277.965 304.529 279.463 305.151 281.026 305.154H489.574C491.137 305.151 492.635 304.529 493.741 303.424C494.846 302.318 495.468 300.82 495.471 299.257V6.1128C495.468 4.54975 494.846 3.05153 493.741 1.94629C492.635 0.841039 491.137 0.218856 489.574 0.216001H281.026Z" fill="#EBEBEB"/>
<path d="M326.399 353.592H356.984V201.42H326.399V353.592Z" fill="#E6E6E6"/>
<path d="M332.193 353.592H326.383V337.068H338.284L332.193 353.592Z" fill="#F0F0F0"/>
<path d="M440.703 353.592H471.289V201.42H440.703V353.592Z" fill="#E6E6E6"/>
<path d="M326.398 343.451H445.781V201.42L326.398 201.42V343.451Z" fill="#F0F0F0"/>
<path d="M330.898 295.174V322.79H384.132V295.174H330.898Z" fill="#E6E6E6"/>
<path d="M388.031 295.174V322.79H441.264V295.174H388.031Z" fill="#E6E6E6"/>
<path d="M409.385 299.797H419.915C422.179 299.799 424.42 299.338 426.5 298.443C428.58 297.548 430.455 296.237 432.011 294.592H397.289C398.845 296.237 400.72 297.548 402.8 298.443C404.88 299.338 407.121 299.799 409.385 299.797Z" fill="#F0F0F0"/>
<path d="M351.713 299.797H362.243C364.508 299.799 366.748 299.338 368.828 298.443C370.908 297.548 372.784 296.237 374.339 294.592H339.617C341.173 296.237 343.048 297.548 345.128 298.443C347.208 299.338 349.449 299.799 351.713 299.797Z" fill="#F0F0F0"/>
<path d="M330.891 252.245V279.86H384.124V252.245H330.891Z" fill="#E6E6E6"/>
<path d="M388.031 252.255V279.871H441.264V252.255H388.031Z" fill="#E6E6E6"/>
<path d="M409.385 256.867H419.915C422.179 256.862 424.418 256.396 426.496 255.497C428.574 254.599 430.447 253.286 432 251.64H397.289C398.844 253.287 400.719 254.601 402.798 255.5C404.878 256.398 407.119 256.864 409.385 256.867Z" fill="#F0F0F0"/>
<path d="M351.713 256.868H362.243C364.507 256.869 366.746 256.408 368.826 255.515C370.906 254.622 372.781 253.315 374.339 251.673H339.617C341.175 253.315 343.051 254.622 345.131 255.515C347.21 256.408 349.45 256.869 351.713 256.868Z" fill="#F0F0F0"/>
<path d="M330.898 209.326V236.941H384.132V209.326H330.898Z" fill="#E6E6E6"/>
<path d="M388.031 209.326V236.941H441.264V209.326H388.031Z" fill="#E6E6E6"/>
<path d="M409.385 213.948H419.915C422.179 213.949 424.42 213.488 426.5 212.593C428.58 211.698 430.455 210.388 432.011 208.742H397.289C398.845 210.388 400.72 211.698 402.8 212.593C404.88 213.488 407.121 213.949 409.385 213.948Z" fill="#F0F0F0"/>
<path d="M351.713 213.948H362.243C364.508 213.949 366.748 213.488 368.828 212.593C370.908 211.698 372.784 210.388 374.339 208.742H339.617C341.173 210.388 343.048 211.698 345.128 212.593C347.208 213.488 349.449 213.949 351.713 213.948Z" fill="#F0F0F0"/>
<path d="M439.974 353.592H445.784V337.068H433.883L439.974 353.592Z" fill="#F0F0F0"/>
<path d="M445 96.9521L449.677 109.739H445L416.305 96.9521H445Z" fill="#F5F5F5"/>
<path d="M449.677 96.9521V109.739L420.992 96.9521H449.677Z" fill="#E6E6E6"/>
<path d="M332.497 96.9521L337.174 109.739H332.497L303.812 96.9521H332.497Z" fill="#F5F5F5"/>
<path d="M337.177 96.9521V109.739L308.492 96.9521H337.177Z" fill="#E6E6E6"/>
<path d="M470.74 87.8145H439.539V97.5453H470.74V87.8145Z" fill="#E6E6E6"/>
<path d="M284.419 97.5566L439.539 97.5566V87.8258L284.419 87.8258V97.5566Z" fill="#F5F5F5"/>
<path d="M408.031 54C408.031 54 408.344 87.8256 420.019 87.8256C431.694 87.8256 431.996 54 431.996 54H408.031Z" fill="#F0F0F0"/>
<path d="M335.641 76.7881C335.641 76.7881 336.461 87.8149 367.868 87.8149C399.274 87.8149 400.095 76.7881 400.095 76.7881H335.641Z" fill="#F0F0F0"/>
<path d="M242.312 353.592H244.397L250.369 324.162L251.449 319L257.929 286.924H282.964L296.496 353.592H298.591L284.8 285.704C284.754 285.471 284.629 285.262 284.446 285.112C284.262 284.962 284.032 284.881 283.795 284.883H257.098C256.862 284.881 256.634 284.963 256.452 285.113C256.27 285.263 256.147 285.472 256.104 285.704L250.38 313.87L249.3 319.022L242.312 353.592Z" fill="#F0F0F0"/>
<path d="M202.211 353.592H204.295L217.839 286.924H242.808L249.288 319.021L250.368 324.162L256.351 353.592H258.436L251.416 319.032L250.336 313.902L244.612 285.736C244.556 285.509 244.428 285.306 244.246 285.158C244.065 285.01 243.841 284.925 243.607 284.915H217.007C216.77 284.913 216.54 284.994 216.357 285.144C216.173 285.294 216.048 285.503 216.003 285.736L202.211 353.592Z" fill="#F0F0F0"/>
<path d="M286.695 277.106H214.043C212.377 277.109 210.78 277.772 209.602 278.951C208.424 280.129 207.761 281.726 207.758 283.392V283.608C207.758 284.218 208 284.803 208.432 285.235C208.863 285.666 209.448 285.908 210.058 285.908H290.68C291.29 285.908 291.875 285.666 292.307 285.235C292.738 284.803 292.981 284.218 292.981 283.608V283.392C292.978 281.726 292.315 280.129 291.136 278.951C289.958 277.772 288.361 277.109 286.695 277.106Z" fill="#F0F0F0"/>
<path d="M169.398 353.592H171.483L177.455 324.162L178.535 319L185.015 286.924H209.985L223.56 353.592H225.656L211.864 285.704C211.819 285.471 211.693 285.262 211.51 285.112C211.327 284.962 211.097 284.881 210.86 284.883H184.184C183.948 284.881 183.719 284.963 183.538 285.113C183.356 285.263 183.233 285.472 183.19 285.704L177.466 313.87L176.386 319.022L169.398 353.592Z" fill="#F0F0F0"/>
<path d="M129.297 353.592H131.392L144.924 286.924H169.905L176.385 319.022L177.465 324.162L183.448 353.592H185.532L178.512 319.032L177.432 313.902L171.719 285.704C171.663 285.477 171.535 285.274 171.354 285.126C171.173 284.978 170.949 284.892 170.715 284.883H144.093C143.856 284.881 143.626 284.962 143.442 285.112C143.259 285.262 143.134 285.471 143.088 285.704L129.297 353.592Z" fill="#F0F0F0"/>
<path d="M213.843 277.106H141.137C139.471 277.109 137.874 277.772 136.696 278.951C135.518 280.129 134.854 281.726 134.852 283.392V283.608C134.852 284.218 135.094 284.803 135.525 285.235C135.957 285.666 136.542 285.908 137.152 285.908H217.785C218.086 285.908 218.385 285.849 218.663 285.733C218.942 285.617 219.195 285.448 219.408 285.234C219.62 285.02 219.789 284.767 219.903 284.488C220.018 284.209 220.076 283.91 220.074 283.608V283.392C220.072 281.735 219.416 280.146 218.249 278.97C217.083 277.793 215.5 277.123 213.843 277.106Z" fill="#F0F0F0"/>
<path d="M91.0789 191.808H195.461L195.461 24.5912H91.0789L91.0789 191.808Z" fill="#E6E6E6"/>
<path d="M84.2626 191.808H192.273L192.273 24.5912H84.2626L84.2626 191.808Z" fill="#F0F0F0"/>
<path d="M91.0789 204.477H195.461V191.797H91.0789V204.477Z" fill="#E6E6E6"/>
<path d="M72.9033 204.477H180.914V191.797H72.9033V204.477Z" fill="#F0F0F0"/>
<path d="M182.711 182.261V34.1387L93.7945 34.1387L93.7945 182.261H182.711Z" fill="#FAFAFA"/>
<path d="M183.479 182.25L152.202 34.1387H125.742L157.019 182.25H183.479Z" fill="white"/>
<path d="M176.274 164.56C176.455 164.56 176.628 164.488 176.755 164.361C176.883 164.233 176.955 164.06 176.955 163.88V40.3493C176.955 40.1689 176.883 39.9958 176.755 39.8682C176.628 39.7406 176.455 39.6689 176.274 39.6689C176.094 39.6689 175.921 39.7406 175.793 39.8682C175.665 39.9958 175.594 40.1689 175.594 40.3493V163.88C175.594 164.06 175.665 164.233 175.793 164.361C175.921 164.488 176.094 164.56 176.274 164.56Z" fill="#F0F0F0"/>
<path d="M151.341 182.25L120.064 34.1387H109.75L141.016 182.25H151.341Z" fill="white"/>
<path d="M95.0156 182.261L95.0156 34.1387H93.806L93.806 182.261H95.0156Z" fill="#E6E6E6"/>
<path opacity="0.6" d="M81.9922 41.4726H186.374L187.26 37.8438H82.8778L81.9922 41.4726Z" fill="#F0F0F0"/>
<path opacity="0.6" d="M81.9922 49.9071H186.374L187.26 46.2891H82.8778L81.9922 49.9071Z" fill="#F0F0F0"/>
<path opacity="0.6" d="M81.9922 58.3524H186.374L187.26 54.7236H82.8778L81.9922 58.3524Z" fill="#F0F0F0"/>
<path opacity="0.6" d="M81.9922 66.7869H186.374L187.26 63.1689H82.8778L81.9922 66.7869Z" fill="#F0F0F0"/>
<path opacity="0.6" d="M81.9922 75.2332H186.374L187.26 71.6152H82.8778L81.9922 75.2332Z" fill="#F0F0F0"/>
<path opacity="0.6" d="M81.9922 83.6786H186.374L187.26 80.0498H82.8778L81.9922 83.6786Z" fill="#F0F0F0"/>
<path d="M270.003 402.364C385.652 402.364 479.404 396.891 479.404 390.139C479.404 383.387 385.652 377.913 270.003 377.913C154.354 377.913 60.6016 383.387 60.6016 390.139C60.6016 396.891 154.354 402.364 270.003 402.364Z" fill="#F5F5F5"/>
<path d="M262.568 224.35H196.591C195.661 224.35 194.906 225.104 194.906 226.034V253.553C194.906 254.483 195.661 255.238 196.591 255.238H262.568C263.499 255.238 264.253 254.483 264.253 253.553V226.034C264.253 225.104 263.499 224.35 262.568 224.35Z" fill="#53B1FD"/>
<path opacity="0.6" d="M262.568 224.35H196.591C195.661 224.35 194.906 225.104 194.906 226.034V253.553C194.906 254.483 195.661 255.238 196.591 255.238H262.568C263.499 255.238 264.253 254.483 264.253 253.553V226.034C264.253 225.104 263.499 224.35 262.568 224.35Z" fill="white"/>
<path opacity="0.1" d="M262.559 224.35H196.56C196.113 224.35 195.684 224.527 195.368 224.843C195.053 225.159 194.875 225.588 194.875 226.034V234.858L229.219 241.619C229.429 241.662 229.646 241.662 229.856 241.619L264.211 234.858V226.034C264.211 225.593 264.038 225.169 263.729 224.854C263.42 224.539 263 224.358 262.559 224.35Z" fill="black"/>
<path d="M264.002 213.052H243.85V209.672C243.847 208.275 243.291 206.936 242.303 205.948C241.315 204.96 239.976 204.404 238.579 204.401H220.576C219.179 204.404 217.84 204.96 216.852 205.948C215.864 206.936 215.308 208.275 215.305 209.672V213.052H195.163C194.722 213.052 194.299 213.227 193.987 213.539C193.675 213.851 193.5 214.274 193.5 214.715V231.358C193.502 231.742 193.636 232.114 193.88 232.411C194.124 232.708 194.463 232.912 194.839 232.989L229.259 239.761C229.47 239.793 229.685 239.793 229.896 239.761L264.316 232.989C264.693 232.912 265.033 232.709 265.279 232.412C265.524 232.115 265.661 231.743 265.666 231.358V214.715C265.666 214.274 265.49 213.851 265.178 213.539C264.867 213.227 264.444 213.052 264.002 213.052ZM219.312 209.672C219.315 209.336 219.448 209.016 219.685 208.777C219.921 208.539 220.24 208.403 220.576 208.397H238.579C238.914 208.403 239.234 208.539 239.47 208.777C239.706 209.016 239.84 209.336 239.843 209.672V213.052H219.323L219.312 209.672Z" fill="#53B1FD"/>
<path opacity="0.6" d="M264.002 213.052H243.85V209.672C243.847 208.275 243.291 206.936 242.303 205.948C241.315 204.96 239.976 204.404 238.579 204.401H220.576C219.179 204.404 217.84 204.96 216.852 205.948C215.864 206.936 215.308 208.275 215.305 209.672V213.052H195.163C194.722 213.052 194.299 213.227 193.987 213.539C193.675 213.851 193.5 214.274 193.5 214.715V231.358C193.502 231.742 193.636 232.114 193.88 232.411C194.124 232.708 194.463 232.912 194.839 232.989L229.259 239.761C229.47 239.793 229.685 239.793 229.896 239.761L264.316 232.989C264.693 232.912 265.033 232.709 265.279 232.412C265.524 232.115 265.661 231.743 265.666 231.358V214.715C265.666 214.274 265.49 213.851 265.178 213.539C264.867 213.227 264.444 213.052 264.002 213.052ZM219.312 209.672C219.315 209.336 219.448 209.016 219.685 208.777C219.921 208.539 220.24 208.403 220.576 208.397H238.579C238.914 208.403 239.234 208.539 239.47 208.777C239.706 209.016 239.84 209.336 239.843 209.672V213.052H219.323L219.312 209.672Z" fill="white"/>
<path d="M233.142 235.214H226.036C225.153 235.214 224.438 235.929 224.438 236.812V241.305C224.438 242.188 225.153 242.903 226.036 242.903H233.142C234.025 242.903 234.741 242.188 234.741 241.305V236.812C234.741 235.929 234.025 235.214 233.142 235.214Z" fill="#53B1FD"/>
<path opacity="0.3" d="M233.142 235.214H226.036C225.153 235.214 224.438 235.929 224.438 236.812V241.305C224.438 242.188 225.153 242.903 226.036 242.903H233.142C234.025 242.903 234.741 242.188 234.741 241.305V236.812C234.741 235.929 234.025 235.214 233.142 235.214Z" fill="white"/>
<path d="M262.568 25.6719H196.591C195.661 25.6719 194.906 26.4262 194.906 27.3567V54.8751C194.906 55.8056 195.661 56.5599 196.591 56.5599H262.568C263.499 56.5599 264.253 55.8056 264.253 54.8751V27.3567C264.253 26.4262 263.499 25.6719 262.568 25.6719Z" fill="#53B1FD"/>
<path opacity="0.6" d="M262.568 25.6719H196.591C195.661 25.6719 194.906 26.4262 194.906 27.3567V54.8751C194.906 55.8056 195.661 56.5599 196.591 56.5599H262.568C263.499 56.5599 264.253 55.8056 264.253 54.8751V27.3567C264.253 26.4262 263.499 25.6719 262.568 25.6719Z" fill="white"/>
<path opacity="0.1" d="M262.559 25.6719H196.56C196.113 25.6719 195.684 25.8494 195.368 26.1653C195.053 26.4813 194.875 26.9098 194.875 27.3567V36.1803L229.219 42.9411C229.429 42.9841 229.646 42.9841 229.856 42.9411L264.211 36.1803V27.3567C264.211 26.9154 264.038 26.4917 263.729 26.1767C263.42 25.8616 263 25.6804 262.559 25.6719Z" fill="black"/>
<path d="M264.002 14.3754H243.85V10.995C243.847 9.59809 243.291 8.2592 242.303 7.27143C241.315 6.28365 239.976 5.72746 238.579 5.72461H220.576C219.179 5.72746 217.84 6.28365 216.852 7.27143C215.864 8.2592 215.308 9.59809 215.305 10.995V14.3754H195.163C194.722 14.3754 194.299 14.5506 193.987 14.8625C193.675 15.1745 193.5 15.5975 193.5 16.0386V32.6814C193.5 33.0662 193.634 33.439 193.878 33.7364C194.122 34.0338 194.462 34.2373 194.839 34.3122L229.259 41.0406C229.469 41.0837 229.686 41.0837 229.896 41.0406L264.316 34.269C264.689 34.1981 265.027 34.0023 265.274 33.7138C265.522 33.4253 265.663 33.0612 265.676 32.6814V16.0386C265.676 15.8193 265.633 15.6021 265.549 15.3996C265.465 15.1971 265.341 15.0133 265.185 14.8587C265.03 14.7041 264.845 14.5818 264.642 14.4989C264.439 14.416 264.222 14.374 264.002 14.3754ZM219.312 10.995C219.312 10.6589 219.445 10.3364 219.681 10.0977C219.918 9.85898 220.239 9.72346 220.576 9.72061H238.579C238.913 9.72343 239.233 9.85747 239.47 10.0938C239.706 10.3302 239.84 10.65 239.843 10.9842V14.3646H219.323L219.312 10.995Z" fill="#53B1FD"/>
<path opacity="0.6" d="M264.002 14.3754H243.85V10.995C243.847 9.59809 243.291 8.2592 242.303 7.27143C241.315 6.28365 239.976 5.72746 238.579 5.72461H220.576C219.179 5.72746 217.84 6.28365 216.852 7.27143C215.864 8.2592 215.308 9.59809 215.305 10.995V14.3754H195.163C194.722 14.3754 194.299 14.5506 193.987 14.8625C193.675 15.1745 193.5 15.5975 193.5 16.0386V32.6814C193.5 33.0662 193.634 33.439 193.878 33.7364C194.122 34.0338 194.462 34.2373 194.839 34.3122L229.259 41.0406C229.469 41.0837 229.686 41.0837 229.896 41.0406L264.316 34.269C264.689 34.1981 265.027 34.0023 265.274 33.7138C265.522 33.4253 265.663 33.0612 265.676 32.6814V16.0386C265.676 15.8193 265.633 15.6021 265.549 15.3996C265.465 15.1971 265.341 15.0133 265.185 14.8587C265.03 14.7041 264.845 14.5818 264.642 14.4989C264.439 14.416 264.222 14.374 264.002 14.3754ZM219.312 10.995C219.312 10.6589 219.445 10.3364 219.681 10.0977C219.918 9.85898 220.239 9.72346 220.576 9.72061H238.579C238.913 9.72343 239.233 9.85747 239.47 10.0938C239.706 10.3302 239.84 10.65 239.843 10.9842V14.3646H219.323L219.312 10.995Z" fill="white"/>
<path d="M233.142 36.5479H226.036C225.153 36.5479 224.438 37.2635 224.438 38.1463V42.6391C224.438 43.5218 225.153 44.2375 226.036 44.2375H233.142C234.025 44.2375 234.741 43.5218 234.741 42.6391V38.1463C234.741 37.2635 234.025 36.5479 233.142 36.5479Z" fill="#53B1FD"/>
<path opacity="0.3" d="M233.142 36.5479H226.036C225.153 36.5479 224.438 37.2635 224.438 38.1463V42.6391C224.438 43.5218 225.153 44.2375 226.036 44.2375H233.142C234.025 44.2375 234.741 43.5218 234.741 42.6391V38.1463C234.741 37.2635 234.025 36.5479 233.142 36.5479Z" fill="white"/>
<path d="M159.795 224.35H93.8176C92.8871 224.35 92.1328 225.104 92.1328 226.034V253.553C92.1328 254.483 92.8871 255.238 93.8176 255.238H159.795C160.725 255.238 161.48 254.483 161.48 253.553V226.034C161.48 225.104 160.725 224.35 159.795 224.35Z" fill="#53B1FD"/>
<path opacity="0.6" d="M159.795 224.35H93.8176C92.8871 224.35 92.1328 225.104 92.1328 226.034V253.553C92.1328 254.483 92.8871 255.238 93.8176 255.238H159.795C160.725 255.238 161.48 254.483 161.48 253.553V226.034C161.48 225.104 160.725 224.35 159.795 224.35Z" fill="white"/>
<path opacity="0.1" d="M159.838 224.35H93.8176C93.3708 224.35 92.9422 224.527 92.6263 224.843C92.3103 225.159 92.1328 225.588 92.1328 226.034V234.858L126.477 241.619C126.691 241.662 126.911 241.662 127.125 241.619L161.48 234.858V226.034C161.48 225.595 161.308 225.173 161.002 224.858C160.695 224.543 160.277 224.361 159.838 224.35Z" fill="black"/>
<path d="M161.221 213.052H141.068V209.672C141.065 208.275 140.509 206.936 139.522 205.948C138.534 204.96 137.195 204.404 135.798 204.401H117.805C116.408 204.404 115.069 204.96 114.082 205.948C113.094 206.936 112.538 208.275 112.535 209.672V213.052H92.382C91.9408 213.052 91.5178 213.227 91.2059 213.539C90.894 213.851 90.7188 214.274 90.7188 214.715V231.358C90.7209 231.742 90.8552 232.114 91.099 232.411C91.3429 232.708 91.6815 232.912 92.0579 232.989L126.478 239.761C126.692 239.793 126.911 239.793 127.126 239.761L161.545 232.989C161.922 232.912 162.26 232.708 162.504 232.411C162.748 232.114 162.882 231.742 162.884 231.358V214.715C162.884 214.274 162.709 213.851 162.397 213.539C162.085 213.227 161.662 213.052 161.221 213.052ZM116.531 209.672C116.536 209.336 116.672 209.015 116.91 208.777C117.148 208.539 117.469 208.403 117.805 208.397H135.798C136.134 208.403 136.455 208.539 136.693 208.777C136.931 209.015 137.067 209.336 137.072 209.672V213.052H116.552L116.531 209.672Z" fill="#53B1FD"/>
<path opacity="0.6" d="M161.221 213.052H141.068V209.672C141.065 208.275 140.509 206.936 139.522 205.948C138.534 204.96 137.195 204.404 135.798 204.401H117.805C116.408 204.404 115.069 204.96 114.082 205.948C113.094 206.936 112.538 208.275 112.535 209.672V213.052H92.382C91.9408 213.052 91.5178 213.227 91.2059 213.539C90.894 213.851 90.7188 214.274 90.7188 214.715V231.358C90.7209 231.742 90.8552 232.114 91.099 232.411C91.3429 232.708 91.6815 232.912 92.0579 232.989L126.478 239.761C126.692 239.793 126.911 239.793 127.126 239.761L161.545 232.989C161.922 232.912 162.26 232.708 162.504 232.411C162.748 232.114 162.882 231.742 162.884 231.358V214.715C162.884 214.274 162.709 213.851 162.397 213.539C162.085 213.227 161.662 213.052 161.221 213.052ZM116.531 209.672C116.536 209.336 116.672 209.015 116.91 208.777C117.148 208.539 117.469 208.403 117.805 208.397H135.798C136.134 208.403 136.455 208.539 136.693 208.777C136.931 209.015 137.067 209.336 137.072 209.672V213.052H116.552L116.531 209.672Z" fill="white"/>
<path d="M130.353 235.214H123.247C122.364 235.214 121.648 235.929 121.648 236.812V241.305C121.648 242.188 122.364 242.903 123.247 242.903H130.353C131.236 242.903 131.952 242.188 131.952 241.305V236.812C131.952 235.929 131.236 235.214 130.353 235.214Z" fill="#53B1FD"/>
<path opacity="0.3" d="M130.353 235.214H123.247C122.364 235.214 121.648 235.929 121.648 236.812V241.305C121.648 242.188 122.364 242.903 123.247 242.903H130.353C131.236 242.903 131.952 242.188 131.952 241.305V236.812C131.952 235.929 131.236 235.214 130.353 235.214Z" fill="white"/>
<path d="M159.795 25.6719H93.8176C92.8871 25.6719 92.1328 26.4262 92.1328 27.3567V54.8751C92.1328 55.8056 92.8871 56.5599 93.8176 56.5599H159.795C160.725 56.5599 161.48 55.8056 161.48 54.8751V27.3567C161.48 26.4262 160.725 25.6719 159.795 25.6719Z" fill="#53B1FD"/>
<path opacity="0.6" d="M159.795 25.6719H93.8176C92.8871 25.6719 92.1328 26.4262 92.1328 27.3567V54.8751C92.1328 55.8056 92.8871 56.5599 93.8176 56.5599H159.795C160.725 56.5599 161.48 55.8056 161.48 54.8751V27.3567C161.48 26.4262 160.725 25.6719 159.795 25.6719Z" fill="white"/>
<path opacity="0.1" d="M159.838 25.6719H93.8176C93.3708 25.6719 92.9422 25.8494 92.6263 26.1653C92.3103 26.4813 92.1328 26.9098 92.1328 27.3567V36.1803L126.477 42.9411C126.691 42.9844 126.911 42.9844 127.125 42.9411L161.48 36.1803V27.3567C161.48 26.9172 161.308 26.4951 161.002 26.1804C160.695 25.8656 160.277 25.6831 159.838 25.6719Z" fill="black"/>
<path d="M161.221 14.3754H141.068V10.995C141.065 9.59809 140.509 8.2592 139.522 7.27143C138.534 6.28365 137.195 5.72746 135.798 5.72461H117.805C116.408 5.72746 115.069 6.28365 114.082 7.27143C113.094 8.2592 112.538 9.59809 112.535 10.995V14.3754H92.382C91.9408 14.3754 91.5178 14.5506 91.2059 14.8625C90.894 15.1745 90.7188 15.5975 90.7188 16.0386V32.6814C90.7189 33.0662 90.8524 33.439 91.0966 33.7364C91.3408 34.0338 91.6805 34.2373 92.0579 34.3122L126.478 41.0406C126.691 41.084 126.912 41.084 127.126 41.0406L161.545 34.269C161.923 34.1941 162.262 33.9906 162.506 33.6932C162.751 33.3958 162.884 33.023 162.884 32.6382V16.0386C162.884 15.5975 162.709 15.1745 162.397 14.8625C162.085 14.5506 161.662 14.3754 161.221 14.3754ZM116.531 10.995C116.534 10.6579 116.669 10.3354 116.907 10.097C117.146 9.85861 117.468 9.72343 117.805 9.72061H135.798C136.133 9.72338 136.454 9.85707 136.692 10.0931C136.93 10.3292 137.067 10.649 137.072 10.9842V14.3646H116.552L116.531 10.995Z" fill="#53B1FD"/>
<path opacity="0.6" d="M161.221 14.3754H141.068V10.995C141.065 9.59809 140.509 8.2592 139.522 7.27143C138.534 6.28365 137.195 5.72746 135.798 5.72461H117.805C116.408 5.72746 115.069 6.28365 114.082 7.27143C113.094 8.2592 112.538 9.59809 112.535 10.995V14.3754H92.382C91.9408 14.3754 91.5178 14.5506 91.2059 14.8625C90.894 15.1745 90.7188 15.5975 90.7188 16.0386V32.6814C90.7189 33.0662 90.8524 33.439 91.0966 33.7364C91.3408 34.0338 91.6805 34.2373 92.0579 34.3122L126.478 41.0406C126.691 41.084 126.912 41.084 127.126 41.0406L161.545 34.269C161.923 34.1941 162.262 33.9906 162.506 33.6932C162.751 33.3958 162.884 33.023 162.884 32.6382V16.0386C162.884 15.5975 162.709 15.1745 162.397 14.8625C162.085 14.5506 161.662 14.3754 161.221 14.3754ZM116.531 10.995C116.534 10.6579 116.669 10.3354 116.907 10.097C117.146 9.85861 117.468 9.72343 117.805 9.72061H135.798C136.133 9.72338 136.454 9.85707 136.692 10.0931C136.93 10.3292 137.067 10.649 137.072 10.9842V14.3646H116.552L116.531 10.995Z" fill="white"/>
<path d="M130.353 36.5479H123.247C122.364 36.5479 121.648 37.2635 121.648 38.1463V42.6391C121.648 43.5218 122.364 44.2375 123.247 44.2375H130.353C131.236 44.2375 131.952 43.5218 131.952 42.6391V38.1463C131.952 37.2635 131.236 36.5479 130.353 36.5479Z" fill="#53B1FD"/>
<path opacity="0.3" d="M130.353 36.5479H123.247C122.364 36.5479 121.648 37.2635 121.648 38.1463V42.6391C121.648 43.5218 122.364 44.2375 123.247 44.2375H130.353C131.236 44.2375 131.952 43.5218 131.952 42.6391V38.1463C131.952 37.2635 131.236 36.5479 130.353 36.5479Z" fill="white"/>
<path d="M151.201 155.899H93.8206C93.3709 155.899 92.9396 155.72 92.6216 155.402C92.3036 155.084 92.125 154.653 92.125 154.203V126.696C92.1267 126.469 92.1744 126.245 92.2654 126.037C92.3093 125.94 92.3598 125.846 92.4166 125.756C92.4767 125.664 92.5494 125.58 92.6326 125.508C92.9472 125.191 93.3744 125.013 93.8206 125.011H148.134C147.682 128.78 147.534 132.579 147.691 136.372C147.691 136.988 147.691 137.604 147.788 138.208C147.864 139.342 147.95 140.487 148.08 141.621C148.636 146.473 149.681 151.257 151.201 155.899Z" fill="#53B1FD"/>
<path opacity="0.6" d="M151.201 155.899H93.8206C93.3709 155.899 92.9396 155.72 92.6216 155.402C92.3036 155.084 92.125 154.653 92.125 154.203V126.696C92.1267 126.469 92.1744 126.245 92.2654 126.037C92.3093 125.94 92.3598 125.846 92.4166 125.756C92.4767 125.664 92.5494 125.58 92.6326 125.508C92.9472 125.191 93.3744 125.013 93.8206 125.011H148.134C147.682 128.78 147.534 132.579 147.691 136.372C147.691 136.988 147.691 137.604 147.788 138.208C147.864 139.342 147.95 140.487 148.08 141.621C148.636 146.473 149.681 151.257 151.201 155.899Z" fill="white"/>
<path opacity="0.1" d="M148.131 125.011C147.679 128.78 147.531 132.579 147.688 136.372C147.688 136.988 147.688 137.604 147.785 138.208L131.952 141.319L127.114 142.269C126.905 142.323 126.686 142.323 126.477 142.269L121.649 141.33L92.1328 135.519V126.685C92.1362 126.463 92.1801 126.243 92.2624 126.037C92.3063 125.94 92.3568 125.846 92.4136 125.756C92.4737 125.664 92.5464 125.58 92.6296 125.508C92.9442 125.191 93.3715 125.013 93.8176 125.011H148.131Z" fill="black"/>
<path d="M150.389 113.714H141.079V110.334C141.073 108.936 140.515 107.597 139.525 106.61C138.536 105.622 137.196 105.066 135.798 105.063H117.805C116.407 105.063 115.067 105.619 114.078 106.607C113.09 107.596 112.535 108.936 112.535 110.334V113.714H92.382C92.1635 113.714 91.9473 113.757 91.7455 113.841C91.5437 113.924 91.3603 114.047 91.2059 114.201C91.0514 114.356 90.9289 114.539 90.8454 114.741C90.7618 114.943 90.7188 115.159 90.7188 115.377V132.009C90.7189 132.397 90.8536 132.773 91.0998 133.072C91.346 133.371 91.6885 133.576 92.0688 133.651H92.1335L121.65 139.472L126.478 140.412C126.688 140.455 126.905 140.455 127.115 140.412L131.953 139.461L147.689 136.362C147.532 132.569 147.68 128.769 148.132 125C148.58 121.184 149.335 117.41 150.389 113.714ZM116.531 110.334C116.536 109.999 116.673 109.679 116.911 109.443C117.149 109.207 117.47 109.073 117.805 109.07H135.798C136.132 109.073 136.452 109.207 136.688 109.443C136.925 109.68 137.059 110 137.062 110.334V113.714H116.542L116.531 110.334Z" fill="#53B1FD"/>
<path opacity="0.6" d="M150.389 113.714H141.079V110.334C141.073 108.936 140.515 107.597 139.525 106.61C138.536 105.622 137.196 105.066 135.798 105.063H117.805C116.407 105.063 115.067 105.619 114.078 106.607C113.09 107.596 112.535 108.936 112.535 110.334V113.714H92.382C92.1635 113.714 91.9473 113.757 91.7455 113.841C91.5437 113.924 91.3603 114.047 91.2059 114.201C91.0514 114.356 90.9289 114.539 90.8454 114.741C90.7618 114.943 90.7188 115.159 90.7188 115.377V132.009C90.7189 132.397 90.8536 132.773 91.0998 133.072C91.346 133.371 91.6885 133.576 92.0688 133.651H92.1335L121.65 139.472L126.478 140.412C126.688 140.455 126.905 140.455 127.115 140.412L131.953 139.461L147.689 136.362C147.532 132.569 147.68 128.769 148.132 125C148.58 121.184 149.335 117.41 150.389 113.714ZM116.531 110.334C116.536 109.999 116.673 109.679 116.911 109.443C117.149 109.207 117.47 109.073 117.805 109.07H135.798C136.132 109.073 136.452 109.207 136.688 109.443C136.925 109.68 137.059 110 137.062 110.334V113.714H116.542L116.531 110.334Z" fill="white"/>
<path d="M130.353 135.875H123.247C122.364 135.875 121.648 136.591 121.648 137.473V141.966C121.648 142.849 122.364 143.565 123.247 143.565H130.353C131.236 143.565 131.952 142.849 131.952 141.966V137.473C131.952 136.591 131.236 135.875 130.353 135.875Z" fill="#53B1FD"/>
<path opacity="0.3" d="M130.353 135.875H123.247C122.364 135.875 121.648 136.591 121.648 137.473V141.966C121.648 142.849 122.364 143.565 123.247 143.565H130.353C131.236 143.565 131.952 142.849 131.952 141.966V137.473C131.952 136.591 131.236 135.875 130.353 135.875Z" fill="white"/>
<path d="M299.361 255.227H365.339C366.269 255.227 367.023 254.472 367.023 253.542V226.023C367.023 225.093 366.269 224.339 365.339 224.339H299.361C298.431 224.339 297.677 225.093 297.677 226.023V253.542C297.677 254.472 298.431 255.227 299.361 255.227Z" fill="#53B1FD"/>
<path opacity="0.6" d="M299.361 255.227H365.339C366.269 255.227 367.023 254.472 367.023 253.542V226.023C367.023 225.093 366.269 224.339 365.339 224.339H299.361C298.431 224.339 297.677 225.093 297.677 226.023V253.542C297.677 254.472 298.431 255.227 299.361 255.227Z" fill="white"/>
<path opacity="0.1" d="M299.376 224.349H365.343C365.79 224.349 366.218 224.527 366.534 224.843C366.85 225.159 367.028 225.587 367.028 226.034V234.858L332.64 241.618C332.43 241.661 332.213 241.661 332.003 241.618L297.648 234.858V226.034C297.648 225.809 297.693 225.586 297.781 225.379C297.868 225.172 297.996 224.984 298.157 224.827C298.318 224.67 298.509 224.547 298.718 224.465C298.928 224.383 299.152 224.343 299.376 224.349Z" fill="black"/>
<path d="M297.941 213.052H318.094V209.672C318.096 208.275 318.653 206.936 319.64 205.948C320.628 204.96 321.967 204.404 323.364 204.401H341.368C342.764 204.404 344.103 204.96 345.091 205.948C346.079 206.936 346.635 208.275 346.638 209.672V213.052H366.78C366.998 213.052 367.215 213.095 367.416 213.179C367.618 213.262 367.802 213.385 367.956 213.539C368.11 213.694 368.233 213.877 368.317 214.079C368.4 214.281 368.443 214.497 368.443 214.715V231.358C368.441 231.742 368.307 232.114 368.063 232.411C367.819 232.708 367.48 232.912 367.104 232.989L332.641 239.761C332.426 239.793 332.208 239.793 331.993 239.761L297.574 232.989C297.197 232.912 296.859 232.708 296.615 232.411C296.371 232.114 296.237 231.742 296.234 231.358V214.715C296.234 214.493 296.279 214.273 296.365 214.069C296.451 213.864 296.578 213.679 296.737 213.524C296.896 213.369 297.084 213.247 297.291 213.166C297.498 213.085 297.719 213.046 297.941 213.052ZM342.631 209.672C342.628 209.336 342.495 209.016 342.259 208.777C342.023 208.539 341.703 208.403 341.368 208.397H323.364C323.028 208.403 322.707 208.539 322.469 208.777C322.231 209.015 322.095 209.336 322.09 209.672V213.052H342.61L342.631 209.672Z" fill="#53B1FD"/>
<path opacity="0.6" d="M297.941 213.052H318.094V209.672C318.096 208.275 318.653 206.936 319.64 205.948C320.628 204.96 321.967 204.404 323.364 204.401H341.368C342.764 204.404 344.103 204.96 345.091 205.948C346.079 206.936 346.635 208.275 346.638 209.672V213.052H366.78C366.998 213.052 367.215 213.095 367.416 213.179C367.618 213.262 367.802 213.385 367.956 213.539C368.11 213.694 368.233 213.877 368.317 214.079C368.4 214.281 368.443 214.497 368.443 214.715V231.358C368.441 231.742 368.307 232.114 368.063 232.411C367.819 232.708 367.48 232.912 367.104 232.989L332.641 239.761C332.426 239.793 332.208 239.793 331.993 239.761L297.574 232.989C297.197 232.912 296.859 232.708 296.615 232.411C296.371 232.114 296.237 231.742 296.234 231.358V214.715C296.234 214.493 296.279 214.273 296.365 214.069C296.451 213.864 296.578 213.679 296.737 213.524C296.896 213.369 297.084 213.247 297.291 213.166C297.498 213.085 297.719 213.046 297.941 213.052ZM342.631 209.672C342.628 209.336 342.495 209.016 342.259 208.777C342.023 208.539 341.703 208.403 341.368 208.397H323.364C323.028 208.403 322.707 208.539 322.469 208.777C322.231 209.015 322.095 209.336 322.09 209.672V213.052H342.61L342.631 209.672Z" fill="white"/>
<path d="M328.803 242.903H335.909C336.792 242.903 337.508 242.188 337.508 241.305V236.812C337.508 235.929 336.792 235.214 335.909 235.214H328.803C327.92 235.214 327.205 235.929 327.205 236.812V241.305C327.205 242.188 327.92 242.903 328.803 242.903Z" fill="#53B1FD"/>
<path opacity="0.3" d="M328.803 242.903H335.909C336.792 242.903 337.508 242.188 337.508 241.305V236.812C337.508 235.929 336.792 235.214 335.909 235.214H328.803C327.92 235.214 327.205 235.929 327.205 236.812V241.305C327.205 242.188 327.92 242.903 328.803 242.903Z" fill="white"/>
<path d="M299.361 56.5498L365.339 56.5498C366.269 56.5498 367.023 55.7955 367.023 54.865V27.3466C367.023 26.4161 366.269 25.6618 365.339 25.6618L299.361 25.6618C298.431 25.6618 297.677 26.4161 297.677 27.3466V54.865C297.677 55.7955 298.431 56.5498 299.361 56.5498Z" fill="#53B1FD"/>
<path opacity="0.6" d="M299.361 56.5498L365.339 56.5498C366.269 56.5498 367.023 55.7955 367.023 54.865V27.3466C367.023 26.4161 366.269 25.6618 365.339 25.6618L299.361 25.6618C298.431 25.6618 297.677 26.4161 297.677 27.3466V54.865C297.677 55.7955 298.431 56.5498 299.361 56.5498Z" fill="white"/>
<path opacity="0.1" d="M299.372 25.6719H365.339C365.786 25.6719 366.214 25.8494 366.53 26.1653C366.846 26.4813 367.023 26.9098 367.023 27.3567V36.1803L332.636 42.9411C332.426 42.9841 332.209 42.9841 331.999 42.9411L297.688 36.1803V27.3567C297.688 26.9098 297.865 26.4813 298.181 26.1653C298.497 25.8494 298.925 25.6719 299.372 25.6719Z" fill="black"/>
<path d="M297.941 14.3755H318.094V10.9951C318.096 9.59819 318.653 8.2593 319.64 7.27153C320.628 6.28375 321.967 5.72756 323.364 5.72471H341.368C342.063 5.72044 342.752 5.85354 343.396 6.11636C344.04 6.37917 344.625 6.76654 345.119 7.25623C345.613 7.74591 346.005 8.32827 346.273 8.96989C346.541 9.61151 346.68 10.2997 346.681 10.9951V14.3755H366.823C367.264 14.3755 367.687 14.5507 367.999 14.8626C368.311 15.1746 368.486 15.5976 368.486 16.0387V32.6815C368.486 33.0663 368.353 33.4391 368.109 33.7365C367.864 34.0339 367.525 34.2373 367.147 34.3123L332.641 41.0407C332.427 41.0841 332.207 41.0841 331.993 41.0407L297.574 34.2691C297.196 34.1942 296.856 33.9907 296.612 33.6933C296.368 33.3959 296.234 33.0231 296.234 32.6383V16.0387C296.234 15.8166 296.279 15.5968 296.365 15.3921C296.451 15.1874 296.578 15.0021 296.737 14.8471C296.896 14.6921 297.084 14.5705 297.291 14.4895C297.498 14.4085 297.719 14.3697 297.941 14.3755ZM342.631 10.9951C342.631 10.659 342.498 10.3365 342.262 10.0978C342.025 9.85908 341.704 9.72356 341.368 9.72071H323.364C323.029 9.72348 322.708 9.85717 322.47 10.0932C322.232 10.3293 322.095 10.6491 322.09 10.9843V14.3647H342.61L342.631 10.9951Z" fill="#53B1FD"/>
<path opacity="0.6" d="M297.941 14.3755H318.094V10.9951C318.096 9.59819 318.653 8.2593 319.64 7.27153C320.628 6.28375 321.967 5.72756 323.364 5.72471H341.368C342.063 5.72044 342.752 5.85354 343.396 6.11636C344.04 6.37917 344.625 6.76654 345.119 7.25623C345.613 7.74591 346.005 8.32827 346.273 8.96989C346.541 9.61151 346.68 10.2997 346.681 10.9951V14.3755H366.823C367.264 14.3755 367.687 14.5507 367.999 14.8626C368.311 15.1746 368.486 15.5976 368.486 16.0387V32.6815C368.486 33.0663 368.353 33.4391 368.109 33.7365C367.864 34.0339 367.525 34.2373 367.147 34.3123L332.641 41.0407C332.427 41.0841 332.207 41.0841 331.993 41.0407L297.574 34.2691C297.196 34.1942 296.856 33.9907 296.612 33.6933C296.368 33.3959 296.234 33.0231 296.234 32.6383V16.0387C296.234 15.8166 296.279 15.5968 296.365 15.3921C296.451 15.1874 296.578 15.0021 296.737 14.8471C296.896 14.6921 297.084 14.5705 297.291 14.4895C297.498 14.4085 297.719 14.3697 297.941 14.3755ZM342.631 10.9951C342.631 10.659 342.498 10.3365 342.262 10.0978C342.025 9.85908 341.704 9.72356 341.368 9.72071H323.364C323.029 9.72348 322.708 9.85717 322.47 10.0932C322.232 10.3293 322.095 10.6491 322.09 10.9843V14.3647H342.61L342.631 10.9951Z" fill="white"/>
<path d="M328.803 44.2266H335.909C336.792 44.2266 337.508 43.5109 337.508 42.6282V38.1354C337.508 37.2526 336.792 36.537 335.909 36.537H328.803C327.92 36.537 327.205 37.2526 327.205 38.1354V42.6282C327.205 43.5109 327.92 44.2266 328.803 44.2266Z" fill="#53B1FD"/>
<path opacity="0.3" d="M328.803 44.2266H335.909C336.792 44.2266 337.508 43.5109 337.508 42.6282V38.1354C337.508 37.2526 336.792 36.537 335.909 36.537H328.803C327.92 36.537 327.205 37.2526 327.205 38.1354V42.6282C327.205 43.5109 327.92 44.2266 328.803 44.2266Z" fill="white"/>
<path d="M308 155.899H365.348C365.796 155.896 366.224 155.716 366.54 155.398C366.856 155.081 367.033 154.651 367.033 154.203V126.696C367.031 126.469 366.983 126.245 366.892 126.037C366.853 125.938 366.802 125.843 366.741 125.756C366.681 125.664 366.608 125.58 366.525 125.508C366.37 125.35 366.185 125.225 365.981 125.14C365.777 125.054 365.558 125.01 365.337 125.011H311.035C311.487 128.78 311.635 132.579 311.478 136.372C311.478 136.988 311.478 137.604 311.38 138.208C311.316 139.342 311.218 140.487 311.089 141.621C310.543 146.472 309.509 151.256 308 155.899Z" fill="#53B1FD"/>
<path opacity="0.6" d="M308 155.899H365.348C365.796 155.896 366.224 155.716 366.54 155.398C366.856 155.081 367.033 154.651 367.033 154.203V126.696C367.031 126.469 366.983 126.245 366.892 126.037C366.853 125.938 366.802 125.843 366.741 125.756C366.681 125.664 366.608 125.58 366.525 125.508C366.37 125.35 366.185 125.225 365.981 125.14C365.777 125.054 365.558 125.01 365.337 125.011H311.035C311.487 128.78 311.635 132.579 311.478 136.372C311.478 136.988 311.478 137.604 311.38 138.208C311.316 139.342 311.218 140.487 311.089 141.621C310.543 146.472 309.509 151.256 308 155.899Z" fill="white"/>
<path opacity="0.1" d="M311.039 125.011C311.491 128.78 311.639 132.579 311.482 136.372C311.482 136.988 311.482 137.604 311.385 138.208L327.239 141.319L332.077 142.269C332.286 142.323 332.506 142.323 332.715 142.269L337.542 141.33L367.059 135.519V126.685C367.055 126.463 367.011 126.243 366.929 126.037C366.889 125.938 366.839 125.843 366.778 125.756C366.718 125.664 366.645 125.58 366.562 125.508C366.407 125.35 366.222 125.225 366.018 125.14C365.814 125.054 365.595 125.01 365.374 125.011H311.039Z" fill="black"/>
<path d="M308.77 113.714H318.09V110.334C318.093 108.937 318.649 107.598 319.637 106.61C320.625 105.623 321.964 105.066 323.361 105.063H341.353C342.752 105.063 344.094 105.618 345.084 106.606C346.074 107.595 346.632 108.935 346.635 110.334V113.714H366.777C367.218 113.714 367.641 113.89 367.953 114.201C368.265 114.513 368.44 114.936 368.44 115.377V132.009C368.44 132.396 368.307 132.77 368.063 133.069C367.819 133.368 367.479 133.574 367.101 133.651H367.025L337.509 139.472L332.638 140.401C332.428 140.444 332.211 140.444 332.001 140.401L327.162 139.451L311.427 136.351C311.733 128.696 310.822 121.04 308.727 113.671L308.77 113.714ZM342.628 110.334C342.622 109.999 342.486 109.679 342.248 109.443C342.01 109.207 341.689 109.073 341.353 109.07H323.361C323.026 109.073 322.707 109.207 322.47 109.443C322.234 109.68 322.1 110 322.097 110.334V113.714H342.617L342.628 110.334Z" fill="#53B1FD"/>
<path opacity="0.6" d="M308.77 113.714H318.09V110.334C318.093 108.937 318.649 107.598 319.637 106.61C320.625 105.623 321.964 105.066 323.361 105.063H341.353C342.752 105.063 344.094 105.618 345.084 106.606C346.074 107.595 346.632 108.935 346.635 110.334V113.714H366.777C367.218 113.714 367.641 113.89 367.953 114.201C368.265 114.513 368.44 114.936 368.44 115.377V132.009C368.44 132.396 368.307 132.77 368.063 133.069C367.819 133.368 367.479 133.574 367.101 133.651H367.025L337.509 139.472L332.638 140.401C332.428 140.444 332.211 140.444 332.001 140.401L327.162 139.451L311.427 136.351C311.733 128.696 310.822 121.04 308.727 113.671L308.77 113.714ZM342.628 110.334C342.622 109.999 342.486 109.679 342.248 109.443C342.01 109.207 341.689 109.073 341.353 109.07H323.361C323.026 109.073 322.707 109.207 322.47 109.443C322.234 109.68 322.1 110 322.097 110.334V113.714H342.617L342.628 110.334Z" fill="white"/>
<path d="M328.803 143.576H335.909C336.792 143.576 337.508 142.861 337.508 141.978V137.485C337.508 136.602 336.792 135.887 335.909 135.887H328.803C327.92 135.887 327.205 136.602 327.205 137.485V141.978C327.205 142.861 327.92 143.576 328.803 143.576Z" fill="#53B1FD"/>
<path opacity="0.3" d="M328.803 143.576H335.909C336.792 143.576 337.508 142.861 337.508 141.978V137.485C337.508 136.602 336.792 135.887 335.909 135.887H328.803C327.92 135.887 327.205 136.602 327.205 137.485V141.978C327.205 142.861 327.92 143.576 328.803 143.576Z" fill="white"/>
<path d="M280.472 118.304H185.669C184.333 118.304 183.25 119.387 183.25 120.723V160.262C183.25 161.598 184.333 162.681 185.669 162.681H280.472C281.808 162.681 282.891 161.598 282.891 160.262V120.723C282.891 119.387 281.808 118.304 280.472 118.304Z" fill="#53B1FD"/>
<path d="M245.998 111.241H220.132C218.171 111.238 216.291 110.458 214.904 109.071C213.518 107.684 212.737 105.804 212.734 103.843V97.2007C212.737 95.2395 213.518 93.3595 214.904 91.9727C216.291 90.5859 218.171 89.8056 220.132 89.8027H245.998C247.96 89.8027 249.842 90.5822 251.23 91.9696C252.617 93.357 253.396 95.2387 253.396 97.2007V103.81C253.401 104.785 253.212 105.75 252.843 106.651C252.473 107.553 251.928 108.372 251.241 109.062C250.554 109.753 249.737 110.301 248.837 110.675C247.937 111.048 246.973 111.241 245.998 111.241ZM220.132 95.2351C219.612 95.2407 219.114 95.4492 218.745 95.8164C218.376 96.1835 218.164 96.6802 218.156 97.2007V103.81C218.156 104.34 218.366 104.848 218.741 105.223C219.116 105.598 219.624 105.808 220.154 105.808H246.02C246.55 105.808 247.058 105.598 247.433 105.223C247.807 104.848 248.018 104.34 248.018 103.81V97.2007C248.018 96.6708 247.807 96.1626 247.433 95.7879C247.058 95.4132 246.55 95.2027 246.02 95.2027L220.132 95.2351Z" fill="#53B1FD"/>
<path opacity="0.2" d="M280.461 118.304H185.68C185.361 118.302 185.046 118.364 184.751 118.485C184.456 118.606 184.188 118.784 183.962 119.008C183.737 119.233 183.557 119.5 183.435 119.795C183.313 120.089 183.25 120.404 183.25 120.723V133.413L232.606 143.133C232.908 143.199 233.222 143.199 233.524 143.133L282.891 133.413V120.723C282.891 120.404 282.828 120.089 282.706 119.795C282.583 119.5 282.404 119.233 282.178 119.008C281.953 118.784 281.685 118.606 281.39 118.485C281.095 118.364 280.779 118.302 280.461 118.304Z" fill="black"/>
<path d="M282.956 130.68L233.503 140.4C233.195 140.455 232.881 140.455 232.574 140.4L183.121 130.68C182.577 130.573 182.088 130.281 181.736 129.854C181.383 129.427 181.189 128.891 181.188 128.337V104.469C181.188 104.155 181.249 103.845 181.369 103.555C181.489 103.266 181.665 103.003 181.887 102.781C182.108 102.559 182.371 102.384 182.661 102.264C182.95 102.144 183.261 102.082 183.574 102.082H282.524C282.837 102.082 283.148 102.144 283.437 102.264C283.727 102.384 283.99 102.559 284.212 102.781C284.433 103.003 284.609 103.266 284.729 103.555C284.849 103.845 284.911 104.155 284.911 104.469V128.38C284.9 128.93 284.699 129.459 284.343 129.879C283.987 130.298 283.497 130.581 282.956 130.68Z" fill="#53B1FD"/>
<path d="M238.189 133.932H227.961C226.697 133.932 225.672 134.957 225.672 136.221V142.69C225.672 143.955 226.697 144.98 227.961 144.98H238.189C239.454 144.98 240.479 143.955 240.479 142.69V136.221C240.479 134.957 239.454 133.932 238.189 133.932Z" fill="#53B1FD"/>
<path opacity="0.4" d="M238.189 133.932H227.961C226.697 133.932 225.672 134.957 225.672 136.221V142.69C225.672 143.955 226.697 144.98 227.961 144.98H238.189C239.454 144.98 240.479 143.955 240.479 142.69V136.221C240.479 134.957 239.454 133.932 238.189 133.932Z" fill="black"/>
<path d="M411.376 142.786C412.618 145.346 413.536 147.765 414.616 150.292C415.696 152.819 416.484 155.336 417.327 157.917C419.035 163.15 420.296 168.519 421.096 173.966C421.204 174.646 421.258 175.381 421.334 176.126L421.442 177.206C421.442 177.4 421.442 177.541 421.442 177.767V178.469C421.478 180.107 421.337 181.744 421.02 183.351C420.485 186.144 419.723 188.889 418.742 191.559C416.897 196.634 414.599 201.532 411.873 206.193L406.386 203.871C407.607 198.946 408.838 193.924 409.767 189.075C410.221 186.752 410.542 184.404 410.728 182.044C410.792 181.079 410.77 180.111 410.663 179.15L410.544 178.469L410.393 177.605C410.274 177.033 410.199 176.461 410.058 175.877C408.982 171.11 407.589 166.42 405.89 161.837C405.069 159.494 404.162 157.161 403.254 154.817C402.347 152.474 401.343 150.119 400.414 147.959L411.376 142.786Z" fill="#7F3E3B"/>
<path d="M406.618 202.435L402.406 206.539L411.597 210.859C411.597 210.859 413.822 206.971 412.288 203.45L406.618 202.435Z" fill="#7F3E3B"/>
<path d="M399.016 212.662L406.77 215.837L411.598 210.815L402.407 206.538L399.016 212.662Z" fill="#7F3E3B"/>
<path opacity="0.2" d="M241.72 208.234C257.002 206.523 271.434 200.318 283.191 190.405C294.947 180.492 303.5 167.316 307.769 152.542C312.038 137.768 311.83 122.06 307.172 107.405C302.514 92.7491 293.616 79.8036 281.601 70.2049C269.586 60.6063 254.996 54.7855 239.673 53.4786C224.351 52.1717 208.985 55.4374 195.518 62.8626C182.052 70.2879 171.089 81.5394 164.017 95.1946C156.944 108.85 154.079 124.295 155.784 139.579C156.917 149.73 160.038 159.559 164.97 168.504C169.902 177.449 176.548 185.334 184.528 191.71C192.509 198.085 201.667 202.826 211.48 205.662C221.293 208.497 231.569 209.371 241.72 208.234Z" fill="#53B1FD"/>
<path opacity="0.1" d="M185.133 69.7025L303.393 164.159C303.9 163.079 304.376 161.999 304.84 160.919C307.804 153.868 309.697 146.412 310.456 138.801L208.31 57.2393C199.927 60.0348 192.087 64.2506 185.133 69.7025Z" fill="white"/>
<path opacity="0.1" d="M157.852 111.1L269.027 199.93C279.59 194.42 288.747 186.557 295.789 176.947L174.376 79.9199C166.551 88.9095 160.897 99.5774 157.852 111.1Z" fill="white"/>
<path d="M424.625 218.289C424.483 216.324 423.839 214.427 422.756 212.781C421.969 211.57 420.868 210.596 419.57 209.962L412.194 206.344C407.291 203.914 402.355 201.549 397.42 199.184C392.484 196.819 387.516 194.497 382.57 192.153C377.623 189.809 372.634 187.531 367.633 185.295C357.654 180.773 347.61 176.374 337.501 172.097C332.447 169.937 327.382 167.864 322.273 165.833C320.782 165.246 319.569 164.114 318.882 162.666C318.194 161.218 318.082 159.563 318.569 158.036C325.407 136.477 323.85 113.131 314.209 92.6713C304.569 72.2116 287.556 56.1479 266.578 47.696C245.599 39.2441 222.202 39.0276 201.071 47.0899C179.939 55.1522 162.633 70.8984 152.616 91.1762C142.598 111.454 140.609 134.767 147.047 156.449C153.485 178.131 167.875 196.581 187.335 208.106C206.795 219.631 229.891 223.38 251.998 218.604C274.105 213.828 293.593 200.878 306.559 182.347C307.477 181.029 308.861 180.11 310.431 179.776C312.001 179.441 313.64 179.715 315.016 180.543C319.739 183.351 324.484 186.112 329.25 188.827C338.776 194.255 348.373 199.547 358.043 204.703C362.87 207.316 367.763 209.833 372.569 212.392C377.375 214.952 382.289 217.447 387.181 219.952C392.074 222.458 396.901 224.909 401.858 227.329L409.213 230.979C410.505 231.629 411.951 231.913 413.393 231.8C415.355 231.661 417.249 231.017 418.89 229.931C420.847 228.729 422.424 226.998 423.439 224.938C424.453 222.878 424.865 220.573 424.625 218.289ZM201.745 194.399C189.19 188.204 178.755 178.425 171.758 166.299C164.761 154.172 161.517 140.243 162.437 126.273C163.357 112.303 168.399 98.9198 176.925 87.8154C185.451 76.7111 197.079 68.3845 210.338 63.8889C223.597 59.3933 237.891 58.9305 251.413 62.559C264.935 66.1876 277.077 73.7445 286.303 84.2741C295.53 94.8037 301.427 107.833 303.249 121.714C305.07 135.595 302.735 149.705 296.537 162.259C292.423 170.593 286.709 178.036 279.719 184.162C272.729 190.289 264.6 194.978 255.798 197.962C246.996 200.947 237.692 202.168 228.417 201.557C219.143 200.946 210.08 198.514 201.745 194.399Z" fill="#53B1FD"/>
<path d="M370.645 109.404C370.645 110.041 370.31 110.559 369.889 110.559C369.468 110.559 369.133 110.041 369.133 109.404C369.133 108.767 369.468 108.237 369.889 108.237C370.31 108.237 370.645 108.756 370.645 109.404Z" fill="#263238"/>
<path d="M370.366 110.559C369.607 112.515 368.582 114.357 367.32 116.034C367.757 116.347 368.257 116.56 368.785 116.659C369.313 116.758 369.856 116.74 370.377 116.607L370.366 110.559Z" fill="#630F0F"/>
<path d="M372.912 105.84C372.99 105.838 373.066 105.811 373.129 105.764C373.191 105.717 373.238 105.651 373.261 105.576C373.285 105.502 373.285 105.421 373.261 105.347C373.237 105.272 373.191 105.207 373.128 105.16C372.651 104.802 372.095 104.563 371.508 104.461C370.92 104.36 370.317 104.399 369.747 104.576C369.696 104.59 369.649 104.615 369.608 104.648C369.567 104.682 369.533 104.723 369.51 104.77C369.486 104.817 369.472 104.869 369.469 104.922C369.467 104.975 369.475 105.027 369.494 105.077C369.513 105.126 369.542 105.171 369.579 105.208C369.617 105.246 369.662 105.275 369.711 105.294C369.76 105.313 369.813 105.321 369.866 105.319C369.919 105.316 369.97 105.302 370.017 105.278C370.471 105.144 370.949 105.117 371.415 105.202C371.88 105.286 372.319 105.479 372.696 105.764C372.757 105.814 372.833 105.841 372.912 105.84Z" fill="#263238"/>
<path d="M392.493 114.221C391.349 120.031 390.215 130.669 394.275 134.536C394.275 134.536 392.688 140.422 381.909 140.422C370.029 140.422 376.239 134.536 376.239 134.536C382.719 132.991 382.547 128.185 381.413 123.736L392.493 114.221Z" fill="#7F3E3B"/>
<path d="M396.363 130.896C397.259 131.187 396.093 136.523 396.093 136.523C396.093 136.523 394.613 140.249 376.232 138.953C374.817 138.845 375.357 133.725 376.707 132.98C381.059 130.604 393.469 129.945 396.363 130.896Z" fill="#263238"/>
<path d="M433.699 354.034C434.692 353.937 436.139 352.112 436.55 351.442C436.568 351.413 436.578 351.379 436.578 351.345C436.578 351.31 436.568 351.277 436.55 351.248C436.532 351.216 436.505 351.19 436.472 351.175C436.439 351.159 436.402 351.154 436.366 351.161C436.258 351.161 433.644 351.658 433.007 352.673C432.94 352.78 432.896 352.899 432.877 353.024C432.859 353.148 432.866 353.275 432.899 353.397C433.04 353.872 433.31 354.002 433.526 354.034H433.699ZM435.977 351.626C435.275 352.598 434.12 353.732 433.569 353.656C433.515 353.656 433.353 353.656 433.256 353.289C433.235 353.218 433.229 353.144 433.241 353.071C433.252 352.998 433.279 352.929 433.32 352.868C434.065 352.202 434.989 351.77 435.977 351.626Z" fill="#53B1FD"/>
<path d="M435.867 351.626C436.061 351.61 436.252 351.577 436.44 351.529C436.472 351.519 436.5 351.5 436.523 351.476C436.546 351.451 436.562 351.421 436.569 351.388C436.576 351.355 436.573 351.32 436.562 351.288C436.55 351.256 436.531 351.227 436.505 351.205C436.44 351.14 434.69 349.65 433.502 349.768C433.359 349.778 433.22 349.817 433.093 349.884C432.967 349.951 432.856 350.044 432.768 350.157C432.666 350.255 432.603 350.386 432.589 350.527C432.575 350.667 432.612 350.808 432.692 350.924C433.081 351.54 434.787 351.734 435.867 351.626ZM435.954 351.248C434.874 351.378 433.297 351.162 432.995 350.719C432.995 350.719 432.908 350.578 433.059 350.384C433.12 350.313 433.194 350.254 433.278 350.212C433.361 350.169 433.452 350.143 433.545 350.136C434.441 350.259 435.279 350.647 435.954 351.248Z" fill="#53B1FD"/>
<path d="M359.449 382.438C360.267 382.435 361.084 382.363 361.89 382.222C361.926 382.212 361.959 382.193 361.985 382.167C362.012 382.14 362.031 382.107 362.041 382.071C362.048 382.033 362.042 381.993 362.024 381.958C362.007 381.923 361.979 381.895 361.944 381.877C361.825 381.801 359.06 380.224 357.732 380.581C357.483 380.644 357.27 380.803 357.138 381.023C357.053 381.144 357.008 381.287 357.008 381.434C357.008 381.581 357.053 381.724 357.138 381.844C357.483 382.319 358.434 382.438 359.449 382.438ZM361.285 381.941C359.805 382.147 357.797 382.136 357.429 381.628C357.375 381.563 357.332 381.445 357.429 381.207C357.469 381.14 357.522 381.083 357.585 381.038C357.649 380.994 357.721 380.963 357.797 380.948C358.65 380.721 360.313 381.445 361.285 381.941Z" fill="#53B1FD"/>
<path d="M361.803 382.222C361.842 382.233 361.883 382.233 361.922 382.222C361.946 382.201 361.966 382.175 361.979 382.145C361.992 382.115 361.998 382.082 361.997 382.05C361.997 381.963 361.77 379.825 360.766 378.993C360.617 378.869 360.445 378.776 360.259 378.721C360.073 378.665 359.878 378.647 359.686 378.669C359.168 378.723 359.027 378.982 358.984 379.198C358.844 380.095 360.744 381.812 361.695 382.244L361.803 382.222ZM359.87 378.982C360.111 378.989 360.343 379.077 360.528 379.231C361.128 379.916 361.505 380.767 361.608 381.672C360.626 381.088 359.34 379.738 359.448 379.198C359.448 379.198 359.448 379.026 359.816 378.993L359.87 378.982Z" fill="#53B1FD"/>
<path d="M370.57 382.039H362.643L361.844 363.657H369.782L370.57 382.039Z" fill="#7F3E3B"/>
<path d="M443.482 345.632L437.293 350.589L421.547 339.659L427.746 334.702L443.482 345.632Z" fill="#7F3E3B"/>
<path d="M436.159 350.276L442.488 344.001C442.601 343.892 442.748 343.824 442.905 343.808C443.061 343.793 443.219 343.83 443.352 343.915L449.432 347.824C449.58 347.92 449.703 348.047 449.794 348.198C449.885 348.348 449.94 348.517 449.956 348.692C449.971 348.867 449.947 349.043 449.884 349.207C449.821 349.371 449.722 349.519 449.594 349.639C447.348 351.799 446.149 352.727 443.362 355.481C441.656 357.188 437.476 362.264 435.111 364.607C432.746 366.951 430.111 364.921 430.878 363.743C434.28 358.495 435.435 354.164 435.586 351.529C435.619 351.055 435.822 350.61 436.159 350.276Z" fill="#263238"/>
<path d="M362.684 381.121H371.324C371.481 381.12 371.633 381.173 371.755 381.272C371.877 381.37 371.962 381.508 371.994 381.661L373.56 388.714C373.599 388.883 373.6 389.059 373.561 389.229C373.522 389.398 373.445 389.557 373.335 389.692C373.226 389.828 373.087 389.936 372.93 390.01C372.772 390.084 372.6 390.12 372.426 390.117C369.294 390.117 364.78 389.891 360.848 389.891C356.258 389.891 352.295 390.139 346.906 390.139C343.666 390.139 342.748 386.845 344.108 386.543C350.318 385.193 355.384 385.041 360.74 381.737C361.318 381.354 361.992 381.141 362.684 381.121Z" fill="#263238"/>
<path d="M409.914 136.911C416.793 140.151 419.634 162.356 419.634 162.356L403.812 168.566C401.356 162.553 399.367 156.361 397.861 150.044C395.647 140.021 402.84 133.541 409.914 136.911Z" fill="#53B1FD"/>
<path opacity="0.3" d="M409.914 136.911C416.793 140.151 419.634 162.356 419.634 162.356L403.812 168.566C401.356 162.553 399.367 156.361 397.861 150.044C395.647 140.021 402.84 133.541 409.914 136.911Z" fill="white"/>
<path opacity="0.2" d="M399.667 143.423C399.128 143.161 398.564 142.955 397.983 142.808C397.351 145.176 397.329 147.665 397.918 150.044C399.417 156.362 401.403 162.554 403.858 168.566L409.074 166.524C408.113 160.725 405.165 146.058 399.667 143.423Z" fill="black"/>
<path d="M364.039 136.738C364.039 136.738 355.593 146.274 363.564 205.318H406.008C406.299 198.838 402.206 167.021 408.492 136.328C403.798 135.425 399.05 134.826 394.279 134.535C388.272 134.189 382.25 134.189 376.243 134.535C372.124 134.95 368.043 135.686 364.039 136.738Z" fill="#53B1FD"/>
<path opacity="0.3" d="M364.039 136.738C364.039 136.738 355.593 146.274 363.564 205.318H406.008C406.299 198.838 402.206 167.021 408.492 136.328C403.798 135.425 399.05 134.826 394.279 134.535C388.272 134.189 382.25 134.189 376.243 134.535C372.124 134.95 368.043 135.686 364.039 136.738Z" fill="white"/>
<path opacity="0.2" d="M372.604 149.396C370.682 143.629 366.06 141.782 361.351 145.206C360.4 150.8 359.731 159.818 360.498 174.117L368.781 174.042C368.781 174.042 375.445 157.982 372.604 149.396Z" fill="black"/>
<path d="M371.048 147.031C370.702 149.925 370.227 152.55 369.698 155.282C369.169 158.015 368.553 160.682 367.851 163.371C366.465 168.868 364.578 174.225 362.213 179.377C361.598 180.705 360.885 182.012 360.129 183.319C359.74 183.978 359.351 184.637 358.909 185.285C358.334 186.185 357.657 187.015 356.889 187.758C355.399 189.14 353.632 190.189 351.705 190.836C350.141 191.384 348.522 191.764 346.877 191.97C343.942 192.334 340.975 192.37 338.032 192.078C336.592 191.963 335.188 191.779 333.82 191.527C332.416 191.279 331.088 191.019 329.641 190.641L330.343 184.723C335.272 184.516 340.166 183.792 344.944 182.563C345.916 182.275 346.86 181.899 347.763 181.44C348.356 181.168 348.875 180.757 349.275 180.241C349.189 180.317 349.977 179.01 350.441 178.081C350.906 177.152 351.424 175.921 351.867 174.841C352.774 172.616 353.552 170.262 354.265 167.853C354.977 165.445 355.604 162.993 356.187 160.509C356.77 158.025 357.267 155.52 357.807 152.949C358.347 150.379 358.736 147.83 359.125 145.443L371.048 147.031Z" fill="#7F3E3B"/>
<path d="M374.645 142.559C376.88 149.806 367.808 171.406 367.808 171.406L348.703 166.6C349.873 159.773 351.841 153.107 354.568 146.739C360.724 133.261 371.956 133.822 374.645 142.559Z" fill="#53B1FD"/>
<path opacity="0.3" d="M374.645 142.559C376.88 149.806 367.808 171.406 367.808 171.406L348.703 166.6C349.873 159.773 351.841 153.107 354.568 146.739C360.724 133.261 371.956 133.822 374.645 142.559Z" fill="white"/>
<path d="M330.611 184.755L321.625 184.528L325.945 193.87C325.945 193.87 329.595 194.356 332.598 189.421L335.762 185.652L332.123 184.917C331.624 184.82 331.118 184.766 330.611 184.755Z" fill="#7F3E3B"/>
<path d="M315.953 186.267L321.105 194.011L325.954 193.87L321.623 184.528L315.953 186.267Z" fill="#7F3E3B"/>
<path opacity="0.2" d="M361.852 363.668L362.251 373.14H370.189L369.779 363.668H361.852Z" fill="black"/>
<path opacity="0.2" d="M427.746 334.702L421.547 339.659L429.668 345.297L435.868 340.34L427.746 334.702Z" fill="black"/>
<path d="M392.041 108C391.565 115.862 391.695 120.484 387.721 124.524C381.759 130.593 372.05 127.008 370.171 119.124C368.475 112.06 369.544 100.396 377.234 97.2537C378.929 96.5523 380.777 96.2972 382.599 96.5129C384.421 96.7285 386.158 97.4076 387.643 98.4854C389.128 99.5632 390.312 101.004 391.082 102.669C391.852 104.335 392.182 106.17 392.041 108Z" fill="#7F3E3B"/>
<path d="M398.395 100.698C398.395 100.698 402.531 101.93 401.235 106.649C399.28 113.82 394.679 122.072 388.739 122.59C381.341 123.249 378.004 115.613 377.032 107.718C372.604 104.684 369.321 101.843 370.379 98.6896C371.999 93.8296 377.875 89.6391 387.227 90.7191C396.58 91.7991 401.235 97.8472 398.395 100.698Z" fill="#263238"/>
<path d="M381.531 109.339C381.387 111.289 380.605 113.137 379.306 114.598C377.578 116.499 375.764 115.311 375.461 113C375.191 110.905 375.753 107.395 377.87 106.347C379.987 105.299 381.671 106.984 381.531 109.339Z" fill="#7F3E3B"/>
<path d="M378.617 205.318C378.617 205.318 375.939 258.8 381.155 281.458C389.417 317.336 425.738 346.086 425.738 346.086L437.402 336.744C437.402 336.744 407.518 314.506 404.829 284.634C402.42 257.806 405.984 226.994 405.984 205.318H378.617Z" fill="#53B1FD"/>
<path opacity="0.2" d="M378.617 205.318C378.617 205.318 375.939 258.8 381.155 281.458C389.417 317.336 425.738 346.086 425.738 346.086L437.402 336.744C437.402 336.744 407.518 314.506 404.829 284.634C402.42 257.806 405.984 226.994 405.984 205.318H378.617Z" fill="black"/>
<path opacity="0.2" d="M382.6 221.162C381.52 219.077 379.414 225.287 377.945 233.258C377.945 244.252 378.14 256.759 379.101 267.353C386.434 253.799 384.879 225.482 382.6 221.162Z" fill="black"/>
<path d="M420.445 343.785L424.873 347.22L438.341 336.301L434.302 332.64L420.445 343.785Z" fill="#194185"/>
<path opacity="0.4" d="M420.445 343.785L424.873 347.22L438.341 336.301L434.302 332.64L420.445 343.785Z" fill="#FAFAFA"/>
<path d="M363.564 205.318C363.564 205.318 351.619 255.97 350.777 280.162C349.837 307.303 359.298 371.304 359.298 371.304H372.744C372.744 371.304 374.396 306.806 375.001 282.085C375.649 255.139 391.46 205.318 391.46 205.318H363.564Z" fill="#53B1FD"/>
<path opacity="0.2" d="M363.564 205.318C363.564 205.318 351.619 255.97 350.777 280.162C349.837 307.303 359.298 371.304 359.298 371.304H372.744C372.744 371.304 374.396 306.806 375.001 282.085C375.649 255.139 391.46 205.318 391.46 205.318H363.564Z" fill="black"/>
<path d="M356.715 365.946C356.65 365.946 357.471 371.53 357.471 371.53H373.822L374.265 366.551L356.715 365.946Z" fill="#194185"/>
<path opacity="0.4" d="M356.715 365.946C356.65 365.946 357.471 371.53 357.471 371.53H373.822L374.265 366.551L356.715 365.946Z" fill="#FAFAFA"/>
</svg>
